<svg version="1.0" xmlns="http://www.w3.org/2000/svg"  viewBox="0 0 500.171672 499.853946"  ><g transform="translate(-5.933167,506.499038) scale(0.100000,-0.100000)" fill="#000000" stroke="none"><path fill="currentColor" d="M2654 5060 c-157 -13 -285 -39 -312 -63 -52 -48 -44 -140 15 -170 15 -8 69 -17 118 -21 438 -33 876 -250 1160 -573 499 -571 604 -1383 264 -2064 -46 -92 -161 -272 -214 -334 l-26 -30 -202 206 c-111 113 -212 211 -224 217 -29 16 -58 15 -93 -3 -63 -33 -61 5 -58 -880 l3 -805 28 -27 27 -28 794 -3 794 -2 31 25 c32 28 48 78 36 116 -4 12 -100 116 -213 231 -237 240 -224 202 -111 343 189 235 388 595 474 857 176 538 152 1095 -71 1626 -111 264 -288 525 -499 737 -344 343 -776 562 -1245 629 -136 20 -348 27 -476 16z"/><path fill="currentColor" d="M368 4624 c-36 -19 -48 -43 -48 -95 0 -42 2 -45 210 -254 116 -116 210 -216 210 -222 0 -6 -29 -45 -64 -87 -139 -163 -266 -362 -381 -598 -226 -461 -290 -961 -189 -1466 164 -820 782 -1509 1566 -1747 306 -92 701 -115 995 -57 102 21 128 37 142 89 22 80 -26 117 -162 127 -440 33 -876 249 -1165 578 -489 555 -597 1353 -276 2028 51 107 169 295 229 365 l26 30 202 -206 c111 -113 212 -211 224 -217 30 -16 58 -15 94 4 61 31 59 8 59 869 0 863 2 828 -60 860 -43 22 -1571 22 -1612 -1z"/></g></svg>